<?xml version="1.0" standalone="no"?>
<!DOCTYPE svg PUBLIC "-//W3C//DTD SVG 20010904//EN"
 "http://www.w3.org/TR/2001/REC-SVG-20010904/DTD/svg10.dtd">
<svg version="1.0" xmlns="http://www.w3.org/2000/svg"
 width="822.000000pt" height="464.000000pt" viewBox="0 0 822.000000 464.000000"
 preserveAspectRatio="xMidYMid meet">
<metadata>
Created by potrace 1.15, written by Peter Selinger 2001-2017
</metadata>
<g transform="translate(0.000000,464.000000) scale(0.100000,-0.100000)"
fill="#000000" stroke="none">
<path d="M4378 4603 c-34 -75 -53 -163 -40 -184 7 -10 12 -28 12 -39 0 -23 0
-23 34 -10 18 7 26 6 26 -1 0 -13 48 15 71 42 18 20 12 51 -20 108 -7 13 -16
44 -20 70 -5 36 -11 47 -26 49 -15 1 -25 -8 -37 -35z"/>
<path d="M5296 4632 c19 -13 64 -79 64 -93 0 -20 23 -69 33 -69 4 0 7 -10 7
-21 0 -29 38 -89 56 -89 8 0 14 -7 14 -16 0 -29 34 -75 67 -91 18 -8 30 -20
27 -25 -4 -5 3 -22 13 -37 11 -14 23 -36 27 -48 4 -11 21 -27 38 -34 28 -12
32 -11 50 11 10 13 17 29 14 36 -3 7 1 18 9 24 14 11 14 36 0 78 -7 22 -35 32
-35 12 0 -5 -12 -10 -26 -10 -14 0 -23 4 -19 9 3 5 1 12 -5 16 -20 12 -10 26
18 25 55 -4 80 15 73 54 -1 5 3 31 9 57 8 32 18 50 31 54 13 4 19 15 18 33 0
24 -1 25 -9 7 -7 -18 -8 -18 -15 8 -4 15 -4 47 -1 72 l7 45 -238 0 c-131 0
-233 -4 -227 -8z"/>
<path d="M5876 4594 c-13 -101 -8 -133 26 -167 l32 -32 7 34 c4 19 5 41 1 50
-3 9 -2 13 2 9 5 -4 14 -39 22 -79 8 -41 33 -111 58 -163 56 -115 54 -112 71
-229 12 -86 19 -106 51 -153 l37 -54 3 -232 c2 -196 -1 -244 -16 -303 -10 -38
-20 -96 -23 -128 -10 -111 -96 -177 -243 -185 -67 -4 -89 -1 -129 17 -26 11
-53 21 -60 21 -6 0 -34 11 -61 25 -27 14 -57 25 -67 25 -16 0 -14 -5 9 -37 36
-49 219 -229 324 -318 46 -38 91 -79 101 -89 20 -21 70 -56 80 -56 3 0 6 15 7
33 1 17 15 84 32 147 16 63 32 144 35 180 4 36 8 71 10 78 3 7 7 79 11 160 3
81 10 170 15 197 11 63 3 368 -11 411 -6 18 -13 56 -15 84 -2 28 -10 62 -19
74 -8 13 -13 36 -11 52 2 16 -6 50 -16 75 -11 25 -21 56 -23 70 -4 30 -13 56
-33 92 -18 34 -10 46 14 25 10 -8 30 -18 46 -22 15 -4 34 -14 43 -24 38 -44
84 -105 84 -113 0 -15 42 -48 56 -42 7 3 25 -5 40 -16 15 -12 33 -21 41 -21
24 0 104 -40 132 -66 14 -13 30 -24 34 -24 5 0 26 -13 47 -30 20 -16 48 -34
61 -40 39 -17 88 -56 175 -138 45 -42 100 -92 124 -111 65 -52 84 -105 76
-211 -4 -48 -11 -102 -17 -121 -9 -32 -12 -190 -4 -252 2 -16 6 -142 10 -280
3 -139 11 -278 16 -311 6 -32 12 -99 14 -150 3 -50 9 -107 15 -126 13 -45 13
-133 0 -125 -5 3 -10 1 -10 -4 0 -6 5 -11 10 -11 6 0 10 -42 10 -107 0 -98 -9
-125 -23 -68 -4 15 -5 14 -6 -7 0 -15 3 -29 8 -32 4 -3 4 -29 -1 -58 -15 -89
-13 -276 5 -388 9 -58 19 -143 22 -190 3 -47 10 -116 15 -155 26 -192 41 -299
45 -319 2 -11 7 -64 9 -116 3 -52 10 -131 16 -175 11 -81 30 -291 30 -332 l0
-23 500 0 500 0 0 2310 0 2310 -1129 0 -1129 0 -10 -72 c-9 -70 -9 -71 -11
-23 -2 74 -10 95 -36 95 -19 0 -23 -7 -29 -46z m1969 -4161 c27 -13 35 -23 35
-43 0 -52 -70 -89 -129 -69 -24 8 -32 18 -37 47 -8 41 3 64 37 73 39 11 57 10
94 -8z"/>
<path d="M3097 4382 c-10 -10 -17 -24 -17 -30 0 -7 -7 -12 -15 -12 -8 0 -15 4
-15 9 0 4 -11 6 -25 3 -14 -2 -25 -9 -25 -14 0 -5 -13 -21 -30 -35 -33 -27
-33 -44 0 -118 31 -69 42 -123 30 -145 -11 -20 -50 -28 -50 -10 0 6 -9 10 -19
10 -11 0 -23 5 -26 10 -9 15 -35 12 -35 -4 0 -19 30 -42 52 -38 16 3 23 -8 19
-32 -3 -15 22 -26 62 -26 20 0 37 -4 37 -9 0 -5 42 -30 93 -55 l92 -46 65 18
c58 16 65 20 64 42 -1 24 51 78 70 72 19 -6 115 41 140 69 14 16 32 29 39 29
12 1 67 45 67 55 0 3 18 24 40 46 45 47 49 59 20 66 -11 3 -20 10 -20 15 0 5
-4 6 -10 3 -5 -3 -10 -15 -10 -26 0 -12 -10 -23 -25 -29 -14 -5 -28 -16 -31
-25 -10 -25 -166 -56 -179 -35 -4 6 -12 32 -19 58 -11 43 -14 47 -41 45 -31
-2 -76 -48 -72 -73 1 -8 12 -15 23 -16 29 -2 83 -35 89 -55 5 -13 -8 -57 -21
-78 -2 -2 -16 6 -32 18 -17 12 -33 21 -36 21 -3 0 -14 7 -25 16 -14 12 -18 27
-16 59 3 37 1 43 -15 42 -10 -1 -17 -4 -14 -8 2 -4 -17 -6 -43 -5 -46 2 -48 3
-49 31 0 17 3 44 8 60 14 47 20 104 13 126 -9 26 -85 27 -108 1z"/>
<path d="M3472 3708 c-5 -7 -13 -28 -17 -46 -7 -35 -29 -53 -87 -72 -21 -6
-38 -15 -38 -18 0 -4 -3 -16 -6 -28 -4 -14 7 -35 35 -69 49 -59 56 -105 16
-100 -20 2 -25 -2 -25 -19 0 -12 6 -30 14 -41 15 -23 27 -77 15 -69 -5 3 -9 0
-9 -5 0 -6 -6 -11 -13 -11 -24 0 -57 -45 -57 -78 0 -25 -3 -30 -17 -26 -15 5
-15 4 -3 -4 9 -7 18 -8 26 -1 8 7 14 6 19 -1 12 -19 23 -10 36 28 6 20 27 70
45 110 19 40 34 78 34 85 0 12 34 99 72 186 11 24 24 69 29 100 11 68 11 63 0
57 -4 -3 -16 3 -26 14 -21 23 -29 25 -43 8z"/>
<path d="M953 3628 c-31 -15 -57 -87 -50 -139 7 -54 36 -83 83 -83 47 0 79 35
88 96 15 97 -48 161 -121 126z m52 -4 c40 -16 59 -120 32 -174 -16 -33 -59
-38 -86 -11 -17 17 -21 34 -21 81 0 51 4 65 25 85 27 28 27 28 50 19z"/>
<path d="M3030 3422 c-8 -3 -41 -32 -73 -64 -32 -32 -70 -61 -83 -64 -31 -8
-44 -32 -44 -83 0 -60 15 -91 41 -86 24 5 107 74 108 91 1 7 13 20 28 29 21
14 30 15 45 6 10 -6 25 -11 33 -11 9 0 14 -4 11 -9 -3 -4 1 -17 9 -27 19 -27
39 -6 26 27 -5 14 -7 45 -4 70 4 36 1 48 -19 69 -38 42 -62 58 -78 52z"/>
<path d="M3107 2897 c-12 -13 -32 -35 -44 -50 -13 -15 -29 -27 -37 -27 -28 0
-29 -145 -1 -180 19 -23 34 -119 24 -153 -5 -17 -18 -40 -30 -53 -12 -13 -19
-32 -17 -46 2 -18 12 -25 51 -35 40 -10 55 -9 91 4 36 14 46 23 55 52 16 52
29 211 18 218 -6 4 -4 11 4 17 8 6 20 34 27 61 6 28 14 60 18 73 4 15 2 22 -7
23 -8 0 -34 25 -59 54 -25 30 -51 57 -58 60 -7 2 -23 -6 -35 -18z"/>
<path d="M4376 2843 c-3 -4 -16 -8 -27 -10 -24 -4 -49 -26 -49 -45 -1 -7 -6
-3 -13 9 -12 22 -13 22 -25 3 -15 -24 -15 -31 -1 -27 6 1 20 -13 30 -31 11
-18 15 -31 10 -27 -6 3 -25 -1 -43 -10 -18 -8 -23 -12 -11 -9 16 3 23 -1 28
-16 4 -11 11 -17 17 -14 7 4 8 2 4 -5 -6 -9 -11 -9 -22 0 -11 9 -18 8 -32 -5
-10 -9 -24 -16 -30 -16 -16 0 -15 -8 3 -26 8 -9 19 -13 25 -9 5 3 9 -9 8 -31
-1 -26 -7 -38 -19 -41 -10 -3 -20 -11 -23 -19 -7 -17 6 -18 22 -2 6 6 15 8 19
4 4 -4 2 -11 -5 -15 -7 -4 -10 -14 -7 -22 2 -8 0 -21 -5 -29 -9 -13 -11 -13
-20 0 -8 12 -10 11 -10 -7 0 -23 14 -31 24 -14 3 5 16 11 28 14 20 5 19 3 -7
-19 -16 -13 -36 -22 -43 -19 -8 3 -12 0 -9 -7 2 -7 14 -12 25 -10 12 2 22 -1
22 -6 0 -12 -29 -24 -41 -16 -5 3 -9 -5 -9 -17 0 -18 3 -20 12 -11 7 7 18 12
25 12 18 0 16 -30 -2 -31 -8 -1 -21 -2 -27 -3 -18 -1 -26 -24 -27 -69 -1 -35
-3 -38 -28 -35 -16 2 -31 8 -35 13 -5 6 -8 3 -8 -6 0 -9 -3 -31 -7 -49 -4 -24
-3 -31 6 -26 6 4 11 13 10 19 -3 29 3 37 26 37 14 0 25 -4 25 -10 0 -5 -10
-10 -22 -10 -21 -1 -22 -1 -5 -11 14 -8 22 -8 30 0 12 12 13 16 16 46 0 8 8
15 16 15 8 0 15 5 15 11 0 6 -7 9 -15 5 -8 -3 -15 -2 -15 3 0 5 9 11 20 14 16
4 20 0 20 -21 0 -42 -11 -72 -26 -72 -17 0 -18 -16 -1 -24 9 -5 9 -7 -1 -12
-6 -3 -9 -10 -6 -16 8 -12 -4 -78 -14 -77 -19 3 -32 -2 -32 -12 0 -6 7 -9 15
-5 11 4 15 -1 15 -17 0 -16 -3 -18 -9 -8 -5 7 -14 10 -21 6 -8 -5 -6 -13 9
-26 26 -25 35 -24 55 4 9 12 15 18 15 12 -3 -23 2 -27 18 -14 14 12 16 12 11
-1 -3 -8 -13 -14 -22 -14 -9 1 -16 -5 -16 -13 0 -9 -6 -13 -15 -10 -17 7 -30
-9 -15 -18 8 -5 7 -11 -1 -21 -8 -10 -8 -14 0 -14 6 0 11 -7 11 -16 0 -8 -5
-12 -10 -9 -6 4 -17 1 -25 -5 -11 -9 -15 -9 -15 -1 0 6 4 11 9 11 5 0 11 14
13 31 5 32 -15 64 -33 53 -6 -3 -17 0 -26 8 -14 11 -15 10 -8 -11 5 -16 4 -21
-4 -17 -6 4 -11 2 -11 -3 0 -6 5 -11 10 -11 6 0 10 -7 10 -16 0 -8 -4 -13 -9
-9 -5 3 -12 1 -16 -5 -4 -6 -11 -8 -16 -4 -6 4 -6 11 2 20 15 18 5 18 -32 -2
-17 -8 -28 -18 -25 -21 3 -3 13 0 21 7 14 11 17 10 21 -7 4 -14 12 -19 25 -16
11 3 19 0 19 -6 0 -7 -4 -9 -10 -6 -5 3 -10 1 -10 -4 0 -6 5 -11 10 -11 6 0
10 -6 10 -14 0 -9 7 -12 20 -9 11 3 20 0 20 -6 0 -13 -36 -15 -45 -1 -3 5 -12
7 -20 3 -9 -3 -22 0 -30 7 -10 9 -15 9 -15 1 0 -6 5 -11 10 -11 6 0 10 -8 10
-17 0 -13 3 -14 12 -5 14 14 28 16 28 3 0 -5 -9 -13 -20 -16 -11 -3 -20 -11
-20 -16 0 -6 9 -7 20 -4 15 5 20 2 20 -12 0 -15 2 -16 10 -3 5 8 12 11 15 8 4
-4 4 -11 0 -17 -8 -13 -35 -15 -35 -2 0 5 -9 7 -20 4 -11 -3 -20 -10 -20 -15
0 -6 7 -7 16 -4 17 6 58 -17 48 -27 -4 -3 -16 -2 -28 4 -18 9 -19 8 -6 -3 8
-7 22 -22 30 -32 14 -18 13 -19 -11 -13 -14 4 -29 3 -33 -1 -7 -7 -11 -8 -38
-11 -9 -1 -9 -4 2 -10 8 -6 18 -7 23 -4 5 3 6 -5 2 -18 -4 -17 -3 -20 3 -10 8
12 12 12 24 0 13 -12 12 -15 -10 -26 -29 -15 -35 -16 -28 -4 4 5 0 11 -6 14
-16 5 -58 -21 -58 -36 0 -7 4 -7 12 1 21 21 38 14 38 -16 0 -21 -5 -28 -20
-29 -12 -1 -20 4 -20 13 0 11 -4 12 -18 5 -12 -6 -23 -6 -28 -1 -5 5 -19 7
-32 4 -16 -5 -22 -14 -22 -36 0 -16 4 -27 10 -23 5 3 7 12 4 19 -8 20 9 27 46
19 31 -6 32 -7 15 -20 -18 -12 -18 -13 1 -13 11 0 25 5 32 12 6 6 15 8 19 4 4
-4 1 -12 -7 -17 -11 -8 -12 -12 -2 -16 17 -7 15 -16 -9 -31 -19 -12 -20 -11
-14 10 3 13 3 19 -2 13 -9 -12 -33 -13 -50 -2 -7 5 -9 1 -6 -12 3 -12 11 -17
19 -14 8 3 14 0 14 -6 0 -6 -7 -11 -15 -11 -8 0 -15 -4 -15 -10 0 -18 -40 -33
-55 -20 -10 8 -15 8 -21 -1 -4 -7 -3 -9 4 -5 18 11 24 -13 9 -42 -10 -22 -11
-30 -1 -39 6 -7 14 -9 18 -6 3 3 12 0 21 -7 10 -8 15 -9 15 -1 0 6 5 11 10 11
6 0 10 -7 10 -15 0 -8 5 -15 10 -15 6 0 10 8 8 17 -2 10 4 19 15 21 9 2 17 -2
17 -8 0 -6 -4 -8 -10 -5 -13 8 -13 -1 1 -26 5 -11 14 -17 20 -14 5 4 9 2 9 -3
0 -14 -57 -7 -76 9 -15 12 -17 12 -12 -1 2 -8 15 -20 27 -26 18 -9 19 -13 7
-17 -9 -4 -16 -2 -16 4 0 6 -6 9 -14 6 -8 -3 -17 -3 -20 1 -14 13 -42 8 -43
-9 -1 -12 4 -15 19 -11 16 4 19 2 13 -9 -6 -11 -5 -12 6 -2 18 18 32 16 25 -2
-3 -8 -1 -15 4 -15 5 0 7 -7 4 -15 -4 -8 -15 -15 -26 -15 -18 0 -19 2 -7 18
12 16 12 16 -5 1 -14 -13 -26 -15 -47 -9 -17 5 -31 5 -34 -1 -4 -5 -1 -9 5 -9
6 0 8 -4 5 -10 -9 -14 9 -12 24 2 7 7 12 9 11 3 -5 -24 1 -27 16 -9 15 18 15
18 10 -11 -5 -24 -4 -27 4 -12 13 21 34 23 26 2 -7 -18 3 -45 16 -45 5 0 7 9
3 19 -3 11 -2 22 3 25 15 9 21 -43 6 -54 -8 -8 -14 -8 -19 0 -4 6 -14 9 -22 6
-11 -4 -13 -2 -9 9 7 18 -5 20 -22 3 -9 -9 -12 -9 -12 1 0 7 -5 9 -11 5 -6 -3
-15 -1 -19 6 -5 9 -9 9 -14 1 -4 -6 -2 -11 4 -11 6 0 8 -5 4 -12 -4 -6 -3 -8
3 -5 17 11 84 -15 78 -31 -3 -7 -5 -20 -5 -28 0 -8 -5 -14 -10 -14 -6 0 -8 11
-4 25 4 16 2 25 -6 25 -6 0 -8 -4 -5 -10 3 -5 1 -18 -4 -27 -6 -10 -11 -13
-11 -7 0 7 -9 14 -20 17 -15 4 -20 0 -20 -15 0 -10 5 -16 10 -13 11 7 11 -9 0
-45 -4 -14 -8 -20 -9 -13 -1 7 -8 10 -18 6 -13 -5 -15 -2 -10 12 7 15 5 16 -9
4 -13 -11 -13 -15 -2 -23 7 -6 20 -24 28 -40 13 -25 16 -26 18 -10 7 37 24 40
20 4 -2 -24 -7 -34 -17 -32 -54 12 -115 3 -97 -15 3 -4 11 -2 17 4 11 11 56 6
64 -7 7 -11 45 0 46 14 3 39 7 57 14 63 4 5 5 -2 2 -15 -3 -15 0 -25 9 -29 8
-3 14 -11 14 -19 0 -8 9 -23 19 -33 25 -25 38 -65 20 -59 -8 3 -13 12 -11 22
4 23 -15 20 -21 -4 -4 -15 2 -24 23 -35 21 -11 27 -20 23 -35 -3 -11 -11 -20
-18 -20 -11 0 -11 -8 -4 -32 5 -18 6 -42 2 -53 -4 -11 -8 -31 -8 -45 0 -21 -4
-24 -25 -22 -18 2 -21 0 -11 -6 8 -6 11 -18 7 -30 -5 -16 -2 -21 16 -24 13 -2
23 -10 23 -18 0 -8 6 -21 14 -29 9 -10 11 -27 7 -54 -5 -28 -3 -43 6 -49 9 -7
10 -11 2 -14 -8 -3 -6 -18 8 -46 11 -23 21 -62 23 -87 2 -25 4 -48 5 -51 1 -3
1 -20 0 -37 -1 -31 1 -33 29 -33 23 0 40 9 61 33 28 31 45 76 18 49 -20 -20
-31 -14 -24 14 6 22 4 25 -14 19 -23 -7 -28 10 -5 19 8 3 15 12 15 21 0 8 5
15 10 15 6 0 10 5 10 11 0 7 -10 9 -25 5 -14 -4 -25 -2 -25 4 0 5 9 10 21 10
12 0 17 4 14 11 -4 5 1 20 12 31 18 21 18 21 -9 16 -30 -6 -37 5 -14 19 7 4
17 19 21 32 6 21 5 23 -14 18 -22 -5 -30 16 -11 28 6 3 7 17 4 30 -4 16 2 37
17 61 l23 37 -22 -5 c-12 -4 -25 -2 -28 3 -3 5 2 9 11 9 8 0 19 10 24 23 7 18
5 23 -12 27 -14 4 -21 14 -21 33 -1 15 1 27 5 27 4 0 7 11 7 25 0 32 10 44 22
25 8 -13 10 -12 10 3 0 9 5 17 11 17 5 0 7 -6 3 -12 -5 -9 -2 -9 9 1 9 7 17
19 17 25 0 6 -5 4 -10 -4 -8 -12 -10 -12 -10 -1 0 10 -3 11 -14 2 -12 -10 -17
-8 -26 8 -9 17 -8 20 6 14 12 -4 15 -2 12 8 -3 8 2 20 10 28 13 13 12 16 -4
21 -16 6 -16 7 -1 13 10 4 22 18 29 32 6 14 17 25 25 25 7 0 13 5 13 10 0 13
-13 13 -27 -1 -8 -8 -13 -7 -19 2 -4 7 -3 14 4 17 7 2 12 12 12 23 0 10 7 19
15 19 8 0 15 7 15 16 0 11 -6 15 -19 11 -14 -3 -18 -1 -14 9 3 7 10 12 15 11
6 -1 13 4 15 11 3 6 -2 12 -11 12 -9 0 -16 5 -16 10 0 6 7 10 15 10 20 0 19
10 -2 26 -16 12 -16 13 -2 14 10 0 17 9 18 25 1 14 3 35 3 48 1 12 10 28 19
34 10 8 15 21 12 32 -3 13 2 20 17 24 14 3 19 10 15 17 -6 9 -10 9 -16 -1 -6
-11 -11 -11 -21 -1 -9 9 -9 12 2 12 24 0 43 17 35 29 -5 9 -10 9 -20 1 -10 -8
-13 -5 -11 13 1 16 6 23 16 20 11 -3 16 5 17 27 1 18 -3 30 -10 30 -8 0 -8 3
2 9 7 5 14 23 15 41 1 18 9 36 19 41 10 6 15 15 11 20 -4 6 -12 5 -22 -3 -11
-8 -10 -4 3 11 12 14 18 34 17 51 -2 15 1 31 7 35 6 3 11 13 11 21 0 8 -4 12
-10 9 -5 -3 -10 1 -10 9 0 9 4 16 9 16 13 0 22 61 11 75 -7 9 -5 16 6 26 11 9
14 22 9 46 -4 23 -2 33 7 33 10 0 10 2 0 9 -12 7 -12 12 0 30 11 18 11 23 -1
30 -10 6 -10 10 -1 16 6 4 9 13 6 21 -3 8 -1 14 3 14 5 0 12 7 15 16 3 8 2 12
-3 9 -17 -10 -21 12 -6 31 17 22 19 38 5 29 -5 -3 -10 -1 -10 4 0 6 4 11 9 11
5 0 9 14 9 30 -1 17 7 39 17 50 14 16 15 20 4 20 -8 0 -15 8 -15 19 0 13 5 17
16 13 13 -5 13 -3 1 11 -9 11 -10 17 -2 17 6 0 11 5 11 11 0 6 -8 8 -17 5 -13
-4 -12 -1 5 13 12 11 20 26 16 34 -3 8 2 17 13 21 11 5 14 10 6 14 -7 5 -8 22
-2 57 6 28 11 57 12 65 2 9 6 21 10 27 4 6 3 14 -3 18 -6 4 -7 12 -3 18 4 6 6
26 4 43 -1 18 4 36 13 43 18 15 22 36 5 25 -8 -4 -9 0 -4 15 4 12 2 21 -4 21
-19 0 -12 18 10 23 12 3 18 10 14 17 -5 8 -10 8 -20 0 -8 -7 -16 -7 -19 -2 -3
6 1 12 9 16 8 3 15 11 14 18 0 10 -2 10 -6 0 -8 -21 -34 38 -27 61 5 16 3 19
-14 15 -24 -7 -37 15 -23 39 6 11 10 12 15 4 12 -19 21 -12 22 19 1 32 1 33
-10 23z"/>
<path d="M989 2729 c-9 -9 -41 -28 -70 -41 -113 -53 -172 -119 -222 -248 -29
-73 -43 -216 -30 -300 6 -39 13 -74 16 -76 2 -2 39 1 83 8 87 13 865 18 921 6
31 -7 33 -6 40 30 18 88 -1 304 -34 382 -33 80 -57 114 -118 173 -91 89 -92
89 -349 85 -187 -3 -223 -5 -237 -19z"/>
<path d="M2845 2002 c-9 -23 -20 -585 -12 -606 6 -15 11 -14 48 6 23 13 56 31
73 40 32 17 82 23 110 12 21 -8 21 -54 1 -54 -8 0 -15 -4 -15 -10 0 -5 -11
-12 -25 -16 -19 -5 -24 -11 -20 -24 4 -13 -4 -21 -35 -34 -22 -9 -51 -16 -64
-16 -32 0 -50 -24 -42 -55 4 -16 0 -35 -11 -52 -14 -21 -19 -54 -22 -150 -4
-161 -2 -169 50 -178 33 -6 47 -3 79 19 45 30 67 32 97 11 30 -21 33 -11 42
102 7 106 -2 133 -39 113 -26 -14 -56 -12 -69 4 -10 12 -2 21 42 50 30 20 59
36 66 36 11 0 13 24 17 165 1 33 7 97 12 142 12 87 6 153 -12 153 -16 1 -73
80 -81 112 -4 15 -22 37 -40 50 -40 27 -54 55 -62 120 -3 26 -12 53 -20 59
-22 19 -61 19 -68 1z"/>
<path d="M5300 1919 c0 -16 -4 -29 -10 -29 -21 0 -22 -49 -1 -79 12 -16 21
-42 20 -58 0 -24 -2 -25 -8 -8 -5 11 -6 25 -3 30 3 6 -2 4 -11 -4 -11 -8 -14
-18 -8 -25 4 -6 11 -23 13 -39 4 -22 3 -25 -8 -16 -9 8 -14 8 -14 1 0 -13 -28
-42 -40 -42 -5 0 -7 7 -4 15 4 8 12 15 19 15 13 0 27 35 17 44 -3 3 -14 6 -24
6 -10 0 -18 5 -18 10 0 6 5 10 12 10 6 0 9 3 6 6 -4 3 -15 1 -26 -5 -21 -11
-48 -71 -31 -71 5 0 9 9 9 19 0 21 17 37 28 26 3 -3 0 -10 -8 -15 -14 -9 -7
-14 13 -11 4 1 0 -10 -9 -25 -10 -14 -19 -40 -21 -57 -2 -17 -10 -35 -18 -39
-8 -5 -12 -15 -9 -22 3 -8 1 -17 -5 -20 -6 -4 -8 -13 -4 -21 3 -8 0 -15 -6
-15 -6 0 -11 -4 -11 -10 0 -5 9 -10 19 -10 10 0 22 -8 25 -17 6 -15 8 -15 17
-3 8 13 10 13 19 0 13 -20 12 -30 -2 -30 -18 0 -23 -145 -7 -156 22 -13 41 28
35 73 -4 34 -3 41 9 37 11 -5 15 2 16 22 1 29 1 33 -9 69 -5 17 -3 18 11 7 14
-12 17 -10 23 14 4 15 2 35 -5 45 -15 25 -14 26 10 25 30 -1 47 28 31 54 -16
26 -15 30 6 28 37 -3 52 3 52 20 0 19 -36 46 -50 37 -5 -3 -12 0 -16 6 -5 9 3
11 29 6 40 -6 51 7 41 49 -8 30 3 64 15 46 10 -17 41 -4 34 14 -3 8 0 14 7 14
8 0 10 -12 4 -42 -4 -24 -7 -50 -8 -58 -2 -23 34 -24 55 -1 15 16 17 25 9 46
-13 34 -13 35 5 29 11 -5 15 2 16 27 2 51 -1 62 -22 82 -18 17 -19 17 -20 0
-1 -10 -1 -36 0 -58 1 -35 0 -38 -12 -23 -9 11 -18 14 -28 7 -30 -19 -41 -2
-15 23 11 12 11 17 1 32 -12 15 -14 13 -20 -24 -6 -34 -9 -39 -21 -29 -10 8
-14 8 -14 0 0 -6 -4 -11 -10 -11 -19 0 -10 31 13 40 l22 9 -22 0 c-17 1 -21 5
-17 19 5 14 4 15 -5 2 -6 -8 -11 -23 -11 -32 0 -10 -4 -18 -10 -18 -5 0 -10
-13 -10 -30 0 -16 -4 -30 -10 -30 -16 0 -12 48 6 76 9 13 14 27 10 31 -3 3 -6
1 -6 -5 0 -7 -4 -12 -10 -12 -16 0 -12 18 9 37 19 18 19 18 -5 19 -20 2 -24
-3 -24 -27z"/>
<path d="M5605 1907 c-6 -7 -8 -25 -5 -42 5 -26 9 -30 33 -27 15 2 27 -1 27
-8 0 -6 -4 -9 -9 -5 -5 3 -17 -3 -27 -12 -13 -13 -19 -14 -22 -5 -3 9 -11 8
-33 -5 -16 -10 -29 -21 -29 -26 0 -5 7 -4 15 3 12 10 15 9 15 -8 0 -22 26 -37
36 -21 3 6 13 8 22 4 8 -3 19 0 24 7 6 9 8 7 6 -7 -3 -13 -11 -20 -26 -19 -12
0 -22 -4 -22 -9 0 -5 -11 -6 -25 -3 -14 4 -26 3 -26 -1 -1 -5 -3 -17 -4 -28
-3 -29 -24 -65 -37 -65 -6 0 -4 8 5 18 18 20 23 57 7 47 -16 -10 -12 7 7 27
25 28 7 33 -25 7 -16 -13 -37 -29 -47 -35 -17 -9 -15 -14 22 -50 22 -21 42
-44 44 -50 5 -15 41 -25 55 -16 23 14 25 48 4 70 -21 22 -27 52 -10 52 6 0 10
-9 10 -20 0 -15 7 -20 25 -20 14 0 25 3 25 8 0 4 10 12 23 17 19 9 22 17 21
68 -2 43 1 57 12 57 12 0 12 2 2 14 -9 10 -15 11 -20 2 -6 -8 -8 -8 -8 1 0 16
17 26 25 13 10 -16 31 -11 32 8 1 15 -5 18 -33 15 -32 -2 -34 0 -28 19 4 14 3
18 -6 13 -6 -4 -19 0 -28 8 -13 11 -20 12 -27 4z"/>
<path d="M6943 1798 c-12 -19 -33 -60 -33 -64 0 -10 29 -3 33 9 4 7 6 6 6 -4
1 -9 -6 -22 -14 -29 -17 -14 -20 -50 -5 -50 6 0 10 -18 10 -40 0 -33 3 -38 17
-33 13 5 15 3 8 -13 -4 -10 -10 -40 -12 -67 -3 -35 -1 -48 10 -53 11 -4 14
-15 10 -40 -4 -23 -2 -34 6 -34 7 0 9 5 6 10 -3 6 -2 10 3 10 11 0 12 32 1 46
-11 14 -8 64 3 58 5 -3 15 1 23 10 17 17 20 30 5 21 -5 -3 -10 -2 -10 4 0 5 8
14 18 20 16 9 16 10 0 16 -20 8 -25 35 -7 35 6 0 8 7 5 16 -3 8 -2 12 4 9 16
-10 11 61 -5 75 -9 8 -15 8 -15 2 0 -6 -8 -10 -17 -10 -10 0 -27 -3 -38 -7
-18 -6 -18 -5 2 12 16 13 20 22 13 33 -5 8 -7 25 -4 36 6 25 -11 41 -23 22z"/>
<path d="M1805 1786 c-22 -6 -53 -19 -70 -28 -52 -30 -120 -62 -130 -62 -5 -1
-18 -13 -28 -29 -9 -15 -29 -32 -43 -37 -14 -6 -22 -14 -19 -20 4 -6 -1 -7
-10 -3 -12 4 -13 8 -5 13 8 5 -8 14 -39 25 -28 9 -51 21 -51 26 0 5 -16 9 -35
9 -48 0 -44 -13 9 -29 24 -7 54 -24 67 -37 13 -14 29 -22 36 -20 23 9 22 -10
-3 -42 -14 -18 -30 -29 -35 -26 -6 3 -1 14 11 24 13 11 17 21 10 25 -5 3 -10
1 -10 -6 0 -7 -12 -1 -27 13 -28 27 -53 39 -106 52 -19 4 -26 3 -22 -4 3 -5
15 -10 26 -10 11 0 40 -14 65 -31 39 -27 43 -32 33 -51 -8 -15 -8 -19 0 -14
19 12 24 -23 7 -49 -9 -13 -16 -35 -15 -47 1 -20 3 -19 15 10 8 17 19 32 24
32 14 0 12 -11 -5 -34 -8 -11 -15 -31 -14 -45 0 -24 1 -24 9 -6 10 25 60 101
60 91 0 -4 -5 -17 -11 -28 -7 -13 -7 -24 -1 -30 6 -6 14 2 22 21 7 17 16 31
21 31 4 0 -2 -21 -15 -47 -27 -55 -56 -136 -56 -159 0 -8 -4 -13 -8 -10 -8 4
-7 -58 2 -136 1 -16 -2 -28 -9 -28 -12 0 -15 24 -16 115 0 47 -2 56 -11 41 -6
-11 -8 -46 -3 -92 6 -65 5 -73 -9 -68 -9 4 -16 1 -16 -6 0 -9 13 -11 46 -6 26
3 55 6 65 6 11 0 19 5 19 10 0 6 -8 10 -17 10 -11 0 -14 3 -7 8 6 4 15 17 19
30 6 22 7 23 22 5 13 -17 14 -16 9 9 -4 15 -2 29 3 33 16 9 22 -12 11 -41 -13
-33 -6 -42 16 -23 16 13 16 12 6 -7 -10 -18 -8 -20 24 -22 26 -2 32 1 28 13
-3 8 -10 13 -14 10 -4 -3 -11 2 -14 11 -3 8 -2 12 4 9 15 -9 12 8 -5 31 -17
22 -19 34 -6 34 5 0 13 -10 17 -22 12 -39 47 -63 56 -38 2 6 9 1 16 -10 7 -12
8 -20 2 -20 -5 0 -10 4 -10 9 0 5 -9 7 -19 4 -12 -3 -17 -11 -14 -19 4 -11 29
-14 114 -13 63 0 109 5 109 10 0 6 5 7 12 3 7 -4 86 -9 178 -11 156 -4 254
-13 292 -28 25 -10 33 30 33 165 0 97 -4 125 -24 178 -13 34 -27 62 -32 62 -5
0 -6 6 -3 14 8 21 -45 150 -78 190 -57 70 -169 110 -328 119 -50 3 -101 0
-125 -7z"/>
<path d="M5870 1717 c0 -17 -2 -19 -9 -8 -7 11 -12 10 -27 -8 -10 -11 -25 -21
-32 -21 -10 0 -12 -7 -9 -20 3 -12 -1 -33 -9 -48 -7 -15 -11 -35 -8 -45 5 -16
2 -18 -17 -12 -18 6 -21 4 -16 -9 4 -9 -1 -20 -11 -25 -9 -6 -12 -11 -7 -11
12 0 45 -52 45 -70 0 -6 -13 3 -29 20 -16 18 -31 27 -35 22 -3 -6 0 -12 6 -15
10 -3 8 -9 -4 -24 -25 -27 -22 -36 7 -29 25 6 25 5 21 -44 -2 -27 0 -50 5 -50
14 0 41 61 36 80 -3 13 0 17 9 13 9 -3 14 2 14 14 0 10 5 24 11 30 8 8 6 18
-6 37 -10 15 -15 29 -12 33 4 3 9 -2 13 -11 8 -22 34 -21 34 2 0 10 5 23 11
29 8 8 6 14 -10 22 -11 6 -25 21 -32 32 -9 19 -9 19 9 10 11 -6 22 -15 24 -21
1 -5 13 -7 26 -4 31 9 28 43 -5 71 -27 21 -27 22 -6 23 12 0 23 -5 25 -12 3
-7 12 -5 26 8 29 24 28 30 -8 48 -29 14 -30 14 -30 -7z"/>
<path d="M925 1654 c-47 -12 -51 -16 -25 -28 14 -6 43 -23 65 -38 33 -21 54
-27 116 -30 l76 -3 -27 25 c-59 55 -94 73 -139 76 -25 1 -55 0 -66 -2z"/>
<path d="M5410 1614 c0 -21 -38 -74 -53 -74 -8 0 -8 3 1 12 20 20 13 32 -8 13
-25 -23 -27 -48 -2 -41 12 4 21 -3 31 -26 14 -30 15 -31 22 -10 8 21 29 31 29
14 0 -12 -34 -42 -48 -42 -7 0 -12 9 -12 20 0 13 -5 18 -15 14 -8 -4 -13 -10
-10 -14 3 -5 1 -11 -4 -15 -13 -8 -9 -47 6 -63 7 -7 13 -19 13 -25 0 -8 -3 -8
-11 0 -9 9 -17 6 -32 -8 -11 -10 -27 -19 -34 -19 -7 0 -13 -4 -13 -10 0 -5 4
-10 9 -10 6 0 13 5 16 10 9 15 28 12 22 -3 -3 -7 4 -19 15 -26 17 -11 18 -10
9 8 -16 29 -14 34 13 27 16 -4 26 -1 30 10 3 8 11 12 17 8 8 -5 8 -9 -1 -14
-9 -6 -7 -11 9 -19 17 -10 19 -14 9 -25 -14 -15 -23 -12 -23 7 0 7 -11 13 -25
14 -14 1 -18 0 -7 -3 10 -3 17 -15 17 -30 0 -29 33 -34 46 -6 12 26 14 63 3
57 -5 -4 -9 -2 -9 4 0 5 5 13 10 16 6 3 10 13 10 21 0 8 -5 12 -11 9 -23 -15
-57 -12 -62 5 -5 21 24 21 31 1 2 -7 10 -1 18 14 8 15 11 32 7 38 -3 6 -1 7 5
3 7 -4 12 -14 12 -22 0 -17 16 -19 26 -2 4 7 3 8 -4 4 -8 -5 -12 5 -12 33 0
41 17 58 35 35 8 -10 13 -9 25 4 13 14 12 15 -3 9 -9 -3 -17 -2 -17 3 0 6 5
10 11 10 5 0 7 5 4 10 -9 15 -21 12 -41 -7 -17 -17 -17 -16 -10 10 4 16 3 26
-2 23 -5 -3 -7 6 -4 20 3 16 -1 30 -9 35 -21 13 -29 11 -29 -7z"/>
<path d="M5641 1528 c-21 -52 -24 -64 -21 -93 1 -16 5 -32 9 -35 9 -6 11 -44
5 -86 -4 -27 -9 -32 -29 -30 -30 1 -31 4 -7 23 16 14 16 14 0 9 -12 -4 -18 0
-18 10 0 11 6 15 20 11 24 -6 27 8 3 17 -10 4 -25 -1 -37 -14 -12 -11 -15 -20
-8 -20 7 0 12 -9 12 -21 0 -11 -4 -17 -10 -14 -6 3 -7 -1 -4 -9 4 -9 1 -16 -6
-16 -9 0 -11 -10 -7 -30 5 -24 2 -33 -18 -46 -14 -9 -21 -22 -18 -30 3 -8 0
-14 -7 -14 -7 0 -10 -6 -7 -14 3 -7 -8 -27 -24 -42 -24 -23 -29 -25 -23 -9 4
11 11 25 16 32 5 7 5 14 -2 18 -5 3 -10 0 -10 -8 0 -7 -14 -26 -31 -43 l-31
-29 7 33 c9 42 -8 42 -23 -1 -13 -38 -6 -105 15 -129 16 -18 14 -50 -2 -48 -5
1 -9 9 -7 18 2 13 1 14 -6 4 -5 -7 -8 -26 -7 -41 1 -19 -3 -27 -10 -24 -7 2
-15 -5 -18 -17 -4 -17 -2 -20 14 -15 10 4 19 2 19 -4 0 -19 -18 -21 -54 -6
-45 19 -46 19 -46 -6 0 -16 4 -20 18 -15 10 4 7 -1 -8 -13 -13 -11 -29 -17
-35 -14 -5 3 -4 0 3 -8 17 -18 16 -53 -1 -46 -19 7 -5 -71 14 -85 11 -7 11
-11 2 -15 -7 -2 -13 -11 -13 -20 0 -10 -8 -14 -28 -12 -15 2 -32 0 -39 -4 -6
-4 -19 -4 -29 0 -14 5 -16 3 -10 -13 4 -12 4 -15 -2 -9 -5 6 -12 27 -15 48 -5
30 -2 40 14 50 22 14 26 29 4 21 -8 -4 -15 -1 -15 7 0 19 -10 5 -16 -22 -18
-80 -17 -95 10 -124 29 -31 31 -40 15 -51 -6 -3 -9 -15 -6 -25 3 -12 0 -19 -9
-19 -8 0 -14 -4 -14 -10 0 -5 7 -10 15 -10 9 0 12 -6 8 -16 -3 -8 -11 -13 -18
-10 -16 6 -25 -15 -19 -41 3 -12 -3 -21 -18 -28 -16 -7 -24 -20 -26 -43 -2
-18 -8 -30 -13 -26 -6 3 -13 -3 -16 -15 -3 -12 -13 -21 -22 -21 -12 0 -13 -2
-3 -8 8 -6 10 -19 6 -41 -6 -29 -8 -31 -17 -15 -10 17 -11 17 -18 -1 -12 -32
-10 -65 6 -81 21 -22 36 -8 33 30 -1 22 5 40 20 56 12 13 22 33 22 45 0 11 9
28 20 38 11 9 20 28 20 41 0 13 9 30 20 37 12 8 22 25 23 38 1 13 12 30 24 39
20 12 22 20 17 48 -4 21 -2 34 4 34 6 0 12 16 14 35 2 20 5 35 8 34 3 -2 15 3
26 9 28 15 33 8 23 -35 -5 -23 -4 -44 3 -56 17 -33 28 0 23 73 -2 36 -1 55 1
43 3 -13 10 -23 15 -23 9 0 13 26 9 67 -1 16 3 21 13 18 8 -4 18 4 24 17 11
25 -6 70 -37 95 -13 11 -12 12 5 7 11 -4 25 -13 32 -21 10 -13 15 -11 33 7 12
12 19 28 16 35 -2 7 6 21 20 30 17 11 24 24 22 38 -1 12 1 27 5 33 4 7 3 33
-2 58 -5 26 -5 46 0 46 14 0 49 39 49 54 0 7 9 16 20 19 17 4 20 0 19 -26 0
-18 -3 -26 -6 -19 -2 6 -9 12 -15 12 -6 0 -8 -6 -5 -13 2 -7 1 -37 -4 -67 -9
-60 -9 -63 15 -54 11 4 16 19 16 50 0 30 5 46 15 50 10 4 15 20 15 45 0 24 4
38 11 37 16 -4 31 54 19 66 -19 19 -11 33 15 28 20 -3 27 1 35 24 6 16 20 37
30 46 34 31 43 93 23 148 -3 8 -5 25 -4 38 2 21 1 22 -19 12 -18 -10 -21 -10
-14 2 9 14 16 108 8 108 -2 0 -8 -10 -13 -22z"/>
<path d="M6739 1525 c-1 -5 -1 -17 0 -25 0 -8 -4 -22 -9 -30 -9 -13 -11 -13
-20 0 -9 13 -11 13 -19 0 -6 -9 -6 -19 0 -26 5 -6 6 -25 3 -43 -5 -21 -3 -31
6 -31 7 0 10 -8 8 -18 -6 -20 15 -132 27 -153 6 -9 12 -7 23 7 14 18 14 18 7
-1 -16 -43 -18 -58 -7 -51 7 4 9 -5 5 -29 -4 -23 -2 -35 6 -35 6 0 11 6 11 14
0 7 7 19 15 26 8 7 15 20 15 29 0 9 9 23 20 31 23 17 27 32 5 24 -8 -4 -15 -1
-15 5 0 6 -6 8 -13 5 -8 -3 -25 12 -40 33 -15 21 -30 37 -34 35 -4 -2 -9 1
-11 7 -2 6 3 11 12 11 24 0 31 -4 30 -16 -1 -6 6 -16 16 -21 13 -9 19 -7 28 8
10 15 9 17 -3 13 -10 -4 -15 0 -15 11 0 9 -6 23 -14 30 -11 12 -17 11 -35 -1
-11 -8 -21 -11 -21 -5 0 5 5 13 11 16 7 5 5 12 -5 23 -14 17 -12 72 4 72 16 0
32 58 21 77 -6 10 -11 14 -12 8z"/>
<path d="M1405 1480 c-4 -6 -128 -10 -340 -10 -231 0 -342 -4 -359 -12 -32
-14 -41 -53 -40 -168 1 -81 22 -169 56 -234 28 -54 91 -114 159 -153 102 -58
168 -74 260 -62 41 5 107 6 147 3 l72 -7 0 116 c0 94 3 115 14 111 11 -4 11 3
0 46 -21 81 -22 118 -8 229 11 80 19 109 34 123 19 18 25 28 16 28 -3 0 -8 -4
-11 -10z"/>
<path d="M5100 1447 c0 -20 -4 -37 -8 -37 -5 0 -7 -26 -5 -57 2 -37 -1 -59 -9
-64 -9 -6 -8 -13 6 -28 17 -19 17 -19 -3 -14 -12 3 -21 1 -21 -6 0 -6 7 -11
15 -11 8 0 15 -7 15 -16 0 -8 -4 -13 -8 -10 -19 12 -33 -11 -22 -38 13 -34 13
-56 0 -56 -5 0 -10 9 -10 20 0 11 -4 20 -10 20 -9 0 -14 -15 -11 -33 1 -5 -2
-6 -6 -4 -12 8 -48 -22 -38 -30 4 -5 10 -2 12 5 7 19 23 14 23 -8 0 -26 36
-46 44 -24 3 9 6 22 6 31 0 8 11 28 24 44 15 17 22 36 19 48 -3 13 1 21 15 25
34 11 34 34 2 51 -31 16 -39 27 -17 24 40 -5 47 1 40 34 -3 17 -13 37 -22 44
-10 7 -16 29 -17 63 -2 59 -14 82 -14 27z"/>
<path d="M6110 1370 c-9 -45 -4 -106 10 -117 13 -11 13 -12 -2 -13 -20 0 -24
-15 -8 -25 6 -4 8 -11 5 -16 -4 -5 -1 -17 5 -26 9 -15 10 -14 5 7 l-6 25 21
-24 21 -25 -6 30 c-5 22 -4 25 4 14 8 -12 13 -12 23 -2 16 16 45 16 51 0 4
-10 6 -10 6 0 1 6 5 12 11 12 5 0 19 8 30 17 24 21 28 58 4 49 -9 -3 -19 -6
-22 -6 -4 0 -2 -4 5 -8 6 -4 -15 -7 -48 -6 -33 0 -62 4 -67 9 -4 4 1 5 11 2
13 -5 17 -1 17 17 0 41 -10 55 -35 50 -20 -3 -24 1 -28 23 -2 16 -5 21 -7 13z"/>
<path d="M5688 1232 c14 -10 8 -33 -19 -72 -20 -30 -26 -60 -16 -77 5 -8 3
-13 -3 -13 -6 0 -18 -7 -26 -15 -14 -13 -12 -18 12 -39 l28 -23 -25 -8 c-36
-11 -57 -34 -52 -55 6 -22 33 -48 33 -32 0 6 -4 14 -10 17 -17 11 -11 35 9 35
10 0 22 8 25 17 12 31 32 -12 27 -57 -2 -10 -6 -7 -11 8 -5 12 -17 22 -27 22
-15 0 -15 -2 3 -14 10 -8 16 -18 12 -22 -4 -4 -4 -12 2 -18 5 -7 5 -17 0 -26
-8 -12 -10 -12 -10 4 0 11 -3 17 -6 13 -3 -3 -16 -2 -29 3 -17 6 -27 5 -35 -6
-7 -7 -11 -14 -9 -15 2 0 17 -2 34 -4 16 -2 31 -8 33 -14 2 -5 12 -7 22 -4 40
10 47 102 15 185 -4 9 1 22 9 31 18 17 21 32 6 22 -5 -3 -10 -2 -10 4 0 16 22
25 30 12 5 -9 10 -8 18 2 9 11 8 14 -3 15 -8 1 -22 3 -30 4 -18 2 -20 14 -4
24 6 3 15 1 19 -5 5 -9 10 -8 20 4 10 12 10 15 0 15 -10 0 -9 5 2 18 9 9 13
24 11 32 -6 18 -32 40 -47 40 -6 0 -5 -4 2 -8z"/>
<path d="M6295 1131 c-7 -13 -8 -164 -1 -228 7 -62 2 -75 -22 -51 -9 9 -12 8
-12 -5 0 -19 -22 -26 -100 -29 -30 -2 -54 -6 -52 -10 1 -5 5 -8 8 -7 4 0 10
-5 14 -11 8 -13 60 -21 60 -10 0 4 7 11 16 14 12 4 15 2 10 -9 -3 -8 -1 -15 3
-15 5 0 11 7 15 15 3 9 12 12 22 8 13 -5 15 -2 9 15 -4 16 -2 22 8 22 15 0 27
-41 27 -91 0 -15 5 -31 11 -35 9 -5 10 1 5 20 -8 30 2 55 14 36 5 -8 9 -5 13
9 3 15 -1 25 -14 32 -21 11 -17 31 5 23 10 -4 14 2 12 19 0 14 -5 25 -9 24 -5
-1 -13 8 -18 21 -5 13 -5 22 1 22 6 0 10 -5 10 -11 0 -5 5 -7 11 -4 7 5 4 14
-8 28 -10 11 -13 17 -7 14 7 -4 14 0 18 8 4 10 -1 15 -14 15 -12 0 -20 7 -20
16 0 10 6 14 15 10 12 -4 15 3 15 29 0 24 -5 35 -17 38 -17 4 -17 5 0 6 10 1
17 9 17 21 0 13 -5 18 -15 14 -8 -4 -15 -1 -15 5 0 6 5 10 11 9 6 -2 13 2 16
8 4 13 -34 26 -42 15z"/>
<path d="M5880 874 c0 -13 -3 -14 -14 -5 -11 10 -16 8 -21 -8 -3 -12 -11 -21
-16 -21 -6 0 -7 -4 -4 -10 3 -5 -6 -21 -21 -34 -27 -23 -28 -25 -15 -66 7 -23
10 -44 8 -47 -3 -2 -8 10 -12 27 -5 24 -10 29 -20 20 -8 -6 -17 -24 -20 -40
-7 -33 3 -60 15 -40 5 8 10 9 14 2 4 -6 -2 -16 -13 -22 -16 -8 -22 -6 -30 7
-9 16 -10 16 -11 -4 0 -12 -4 -25 -10 -28 -5 -3 -10 -12 -10 -18 0 -7 7 -4 15
7 7 10 18 15 23 12 14 -9 21 -68 10 -89 -5 -10 -7 -22 -3 -25 10 -10 25 21 25
53 0 36 19 72 21 40 0 -14 3 -11 10 10 5 16 7 40 4 53 -3 17 0 22 10 19 8 -4
15 3 19 16 10 37 7 53 -14 77 -11 13 -17 26 -14 29 4 3 9 0 11 -6 3 -7 11 -13
18 -13 7 0 15 -6 18 -12 3 -10 7 -10 20 1 22 18 21 37 -3 61 -27 27 -25 34 5
14 20 -13 28 -14 40 -4 20 16 19 46 -1 54 -25 10 -34 7 -34 -10z"/>
<path d="M5650 690 c0 -9 -5 -21 -12 -28 -8 -8 -8 -15 2 -27 17 -21 24 -132
11 -168 -9 -22 -14 -26 -28 -19 -30 16 -67 -6 -70 -41 -1 -13 4 -17 15 -13 10
3 5 -4 -10 -17 -16 -12 -28 -28 -28 -34 0 -6 -7 -16 -15 -23 -8 -7 -13 -16
-10 -20 3 -4 -4 -19 -15 -33 -22 -27 -26 -47 -10 -47 6 0 10 5 10 12 0 6 3 8
7 5 3 -4 12 -2 20 4 10 9 13 6 15 -17 0 -16 1 -35 1 -41 -1 -7 3 -13 8 -13 5
0 9 16 9 35 0 21 6 37 16 43 11 6 17 24 17 54 2 33 6 44 15 40 8 -2 18 8 25
27 6 17 19 33 28 36 9 3 21 16 27 30 16 34 27 125 15 125 -10 0 -9 52 2 69 3
6 1 11 -4 11 -6 0 -11 -8 -11 -17 0 -13 -3 -14 -11 -6 -12 12 -5 44 8 42 22
-4 33 3 33 19 -1 15 -2 15 -13 1 -7 -9 -18 -14 -24 -12 -18 6 -16 23 2 23 8 0
15 4 15 8 0 4 -9 8 -20 8 -12 0 -20 -7 -20 -16z"/>
<path d="M6630 695 c0 -14 -11 -19 -37 -16 -7 1 -9 -7 -6 -20 5 -19 7 -19 15
-5 6 11 14 14 21 8 17 -13 57 -13 57 0 0 6 2 9 5 6 3 -3 2 -24 -3 -46 -6 -23
-6 -42 -2 -44 5 -2 14 -32 20 -68 7 -36 16 -73 21 -82 13 -26 20 -163 10 -190
-8 -21 -9 -20 -16 14 -4 20 -4 42 0 48 4 6 -1 21 -12 32 -11 13 -14 22 -7 25
13 4 8 64 -6 73 -5 3 -7 17 -5 31 3 16 -1 28 -14 36 -16 10 -18 8 -18 -13 0
-13 4 -24 9 -24 5 0 8 -6 5 -12 -2 -7 2 -28 9 -47 17 -41 17 -41 0 -41 -11 0
-13 -7 -6 -29 4 -16 6 -32 3 -34 -2 -3 0 -14 6 -25 8 -15 8 -22 -2 -26 -9 -5
-9 -7 1 -12 15 -7 16 -34 0 -34 -6 0 -1 -9 12 -20 13 -11 18 -20 12 -20 -18 0
-14 -25 8 -51 l19 -24 1 23 c0 12 7 25 15 28 8 4 15 15 15 26 0 11 6 26 14 33
12 12 17 0 36 -80 12 -52 26 -95 31 -95 5 0 9 5 9 11 0 8 4 8 13 0 11 -9 14
-4 13 22 -1 17 -5 37 -9 44 -4 6 -1 18 7 26 8 8 13 28 12 48 -2 19 -4 45 -5
58 -1 20 -4 22 -13 13 -18 -18 -26 -14 -24 13 1 17 6 23 15 20 9 -4 11 0 7 11
-3 8 -6 17 -6 20 0 2 -6 1 -14 -2 -8 -3 -17 -1 -21 5 -6 10 7 15 28 12 4 -1 4
11 1 25 -5 18 -3 25 4 20 15 -9 42 4 42 21 0 13 -3 13 -15 3 -13 -11 -18 -10
-29 6 -12 16 -16 16 -30 5 -27 -23 -31 -3 -5 26 18 19 19 25 7 20 -22 -8 -35
12 -17 25 11 7 11 11 2 15 -22 8 -14 25 8 18 17 -6 20 -4 13 6 -5 8 -9 21 -9
29 0 18 -83 24 -103 8 -9 -8 -11 -7 -7 5 4 8 2 18 -4 22 -14 8 -14 62 -1 70
18 11 11 32 -12 38 -12 4 -29 1 -37 -6 -12 -10 -14 -8 -9 11 4 15 2 22 -8 22
-8 0 -14 -7 -14 -15z"/>
<path d="M1396 481 c-4 -5 -2 -11 3 -13 4 -1 11 -14 15 -28 3 -14 3 -19 0 -12
-8 17 -24 15 -24 -3 0 -8 5 -15 11 -15 5 0 7 -4 4 -10 -3 -5 -2 -10 3 -10 5 0
10 -18 10 -40 0 -22 -3 -40 -9 -40 -5 0 -9 10 -9 22 0 13 -4 18 -9 12 -13 -14
15 -181 39 -220 22 -39 25 -48 10 -39 -16 10 -11 -8 10 -33 11 -13 24 -21 29
-18 5 4 12 2 16 -4 3 -5 23 -9 43 -9 20 1 29 3 20 6 -22 6 -23 22 -2 30 9 3
21 -3 30 -16 8 -11 23 -21 32 -21 14 0 12 5 -8 25 -67 67 -81 85 -114 150 -36
73 -60 155 -45 155 5 0 9 -7 9 -15 0 -8 4 -23 9 -33 5 -9 15 -32 22 -50 17
-47 79 -140 122 -183 20 -20 33 -40 30 -43 -4 -3 137 -6 311 -6 l318 0 21 27
c28 36 61 107 81 177 18 62 20 220 2 209 -5 -4 -7 1 -3 10 16 41 1 47 -124 47
-94 0 -119 -3 -119 -14 0 -7 -7 -20 -17 -27 -15 -13 -15 -12 -5 8 7 12 12 24
12 27 0 3 -42 6 -94 6 l-93 0 -58 -115 c-32 -63 -56 -118 -53 -121 5 -4 58 81
58 93 0 12 65 133 71 133 9 0 -76 -186 -110 -240 -11 -19 -21 -39 -21 -45 0
-19 23 15 66 101 25 49 42 76 39 59 -3 -16 -26 -63 -51 -103 -24 -40 -44 -76
-44 -80 -1 -10 -60 -87 -60 -77 0 4 11 23 25 41 25 33 34 60 15 49 -13 -8 -13
1 1 26 6 11 9 25 7 31 -3 7 -21 -23 -42 -66 -21 -42 -40 -76 -42 -74 -3 4 18
48 132 281 l52 107 -27 0 c-25 0 -32 -8 -60 -70 -17 -39 -31 -72 -31 -75 0 -3
-10 -26 -21 -50 -12 -25 -19 -48 -16 -51 5 -5 47 80 47 95 0 9 30 66 58 111
27 43 29 31 3 -19 -11 -20 -42 -84 -70 -143 -27 -60 -52 -108 -56 -108 -3 0
-1 9 5 19 17 33 11 45 -10 20 -17 -21 -19 -21 -13 -4 3 11 9 22 13 25 9 8 43
101 38 106 -3 2 -23 -34 -46 -81 -23 -47 -44 -85 -46 -85 -5 0 18 54 89 205
43 92 58 109 21 23 -9 -21 -12 -38 -7 -38 5 0 14 12 20 28 6 15 17 42 25 60
15 31 14 32 -9 32 -16 0 -26 -7 -31 -22 -5 -19 -53 -124 -122 -268 l-12 -25 6
25 c7 29 50 133 71 173 8 16 13 31 10 33 -6 6 -47 -59 -47 -76 0 -6 -19 -48
-41 -93 -23 -45 -38 -69 -35 -54 5 19 3 26 -4 22 -7 -4 -7 2 0 20 13 35 13 54
-1 35 -8 -11 -9 -9 -3 10 3 14 11 31 17 38 8 10 7 16 -2 21 -10 7 -11 13 -1
31 6 12 9 24 6 27 -3 3 -12 -9 -20 -28 -8 -19 -10 -36 -5 -39 5 -4 0 -24 -11
-45 -11 -22 -20 -47 -20 -56 0 -9 -7 -23 -17 -30 -15 -13 -15 -12 -4 9 9 16 9
22 0 22 -7 0 -9 11 -5 30 3 19 2 29 -4 25 -5 -3 -7 1 -4 9 3 8 12 17 19 20 7
2 21 22 31 43 10 21 20 43 23 48 2 6 -3 4 -12 -4 -9 -7 -17 -10 -17 -6 0 4 -6
2 -14 -4 -11 -9 -15 -8 -18 6 -3 10 -3 24 0 32 4 11 6 11 13 0 7 -12 9 -11 9
1 0 8 -4 21 -9 29 -14 21 -64 -94 -56 -128 7 -26 8 -26 25 14 10 22 19 33 20
25 0 -12 4 -10 16 5 16 19 16 19 9 -5 -9 -30 -26 -53 -33 -45 -3 3 -12 -5 -19
-17 -7 -13 -12 -17 -13 -10 0 7 -4 10 -10 7 -6 -4 -7 1 -3 11 5 13 3 15 -7 9
-10 -6 -12 -4 -7 8 3 9 1 19 -4 23 -6 3 -8 17 -4 31 3 14 2 22 -3 19 -6 -3
-12 4 -16 17 -9 33 -7 49 4 42 15 -9 12 4 -4 21 -16 16 -62 19 -70 5z"/>
<path d="M6526 413 c-3 -10 -8 -35 -12 -55 -3 -21 -10 -36 -14 -33 -4 3 -11
-14 -14 -37 -5 -33 -9 -39 -17 -28 -7 11 -9 1 -5 -35 3 -27 10 -51 16 -53 5
-2 10 -10 10 -19 0 -8 6 -27 14 -41 8 -15 17 -40 21 -55 5 -25 8 -27 22 -15
15 11 16 11 10 -5 -5 -14 -1 -17 27 -17 19 0 41 3 50 6 24 9 19 27 -5 21 -18
-5 -20 -2 -15 19 4 14 2 24 -4 24 -5 0 -10 5 -10 11 0 6 7 9 15 5 8 -3 15 -1
15 3 0 12 -29 23 -41 15 -5 -3 -9 -1 -9 5 0 5 6 11 13 14 6 2 9 8 5 12 -4 4
-14 2 -23 -5 -11 -10 -18 -10 -29 -1 -11 9 -16 9 -22 0 -4 -7 -2 -15 4 -17 7
-2 12 -10 12 -18 0 -8 7 -14 15 -14 8 0 15 -4 15 -10 0 -5 9 -10 20 -10 17 0
19 -2 8 -14 -10 -11 -18 -7 -45 21 -18 18 -33 30 -33 26 0 -5 -4 -1 -10 7 -6
9 -5 19 3 28 9 11 8 17 -4 26 -21 15 -30 64 -13 70 8 3 14 16 14 28 0 13 7 36
15 52 16 30 23 91 13 102 -4 3 -9 -3 -12 -13z"/>
</g>
</svg>
